<svg xmlns="http://www.w3.org/2000/svg" xmlns:xlink="http://www.w3.org/1999/xlink" viewBox="0 0 104.91 40.24"><defs><style>.cls-1{fill:url(#Degradado_sin_nombre_7);}</style><linearGradient id="Degradado_sin_nombre_7" x1="-194.2" y1="-1490.62" x2="-89.38" y2="-1490.62" gradientTransform="translate(530.38 -1396.99) rotate(-155.87)" gradientUnits="userSpaceOnUse"><stop offset="0" stop-color="#c99d45"/><stop offset="0.11" stop-color="#cda14b"/><stop offset="0.25" stop-color="#d8ad5b"/><stop offset="0.41" stop-color="#ebbf77"/><stop offset="0.5" stop-color="#f7cc89"/><stop offset="0.58" stop-color="#f3c784"/><stop offset="0.69" stop-color="#e8ba75"/><stop offset="0.8" stop-color="#d6a35c"/><stop offset="0.92" stop-color="#bc8439"/><stop offset="1" stop-color="#a86b1d"/></linearGradient></defs><g id="Layer_2" data-name="Layer 2"><g id="OBJECTS"><path class="cls-1" d="M27.93,1.39l0,.09c-.22,1.41,2.22,3.32,3.33,3.81a4.76,4.76,0,0,0,5-.52,84.4,84.4,0,0,1,10.27,6.06c-1.6-.26-3.23,0-3.63,1.62a.67.67,0,0,0,0,.31v.05a.11.11,0,0,0,0,0,.19.19,0,0,0,0,.07v0l0,0a.56.56,0,0,0,.33.24c2,.55,4.27,1,5.89-.56a84.21,84.21,0,0,1,9.93,8.68L57.88,21l-3.09-.94a.54.54,0,0,0-.45-.21h-.23q-7.65-2.28-15.38-4.26l0,0-4.29-2.71a4.14,4.14,0,0,0-.45-6.17.47.47,0,0,0-.45-.11.55.55,0,0,0-.93,0A6.08,6.08,0,0,0,32,11.34L23.52,6a.32.32,0,0,0,0-.14,3.82,3.82,0,0,0,.18-2.06A5.17,5.17,0,0,0,21.68.51a.63.63,0,0,0-.87-.45A2.64,2.64,0,0,0,19.42,2.9,2.7,2.7,0,0,0,20,4.22a4.09,4.09,0,0,0-3.15,2,.55.55,0,0,0,0,.55.48.48,0,0,0,.29.47A6.51,6.51,0,0,0,21,8.13,2.94,2.94,0,0,0,22.86,7L35,14.66c-8.16-2-16.37-3.89-24.59-5.71C8.11,5.47,4.57,4.91.6,5.15c-.68,0-.8,1-.27,1.17a.58.58,0,0,0,0,.56A6.32,6.32,0,0,0,3.74,10.3c1.85.83,4,.16,5.81-.23L9.7,10c13.57,3,27.09,6.13,40.44,10A193.11,193.11,0,0,1,19.75,18a2.63,2.63,0,0,0-.39-2.51C18.35,14,16.5,13.39,14.8,13a.62.62,0,0,0-1.07.3.58.58,0,0,0,.06.57A5.83,5.83,0,0,0,15,16.3c-.87-.49-1.72-1-2.54-1.6a.24.24,0,0,0-.11-.06c-.26-3-4.39-2.41-6.47-3.16-.73-.26-1.09.88-.37,1.14,0,0,0,0,0,.05C6.65,15,9.18,17.51,12,15.86l0,0c.85.58,1.72,1.12,2.62,1.62-2.37-.13-5.41.22-6.25,2.43-.2.52.34.85.75.73a.59.59,0,0,0,.23.14,8.31,8.31,0,0,0,5.5.18c1-.31,2.24-1.05,2.2-2.12q6,1,12.13,1.52a7.44,7.44,0,0,0-4.72,3.32.54.54,0,0,0-.07.4.64.64,0,0,0,.54.72,8.66,8.66,0,0,0,5.83-1.37c.87-.52,2.57-1.59,3.08-2.69a192.46,192.46,0,0,0,20.1.34c1.51.45,3,.9,4.53,1.37,11,3.43,22.44,7.07,34,7.17a62,62,0,0,1-15.63,3c.1-1.21-.9-2.39-1.83-3.13a7.88,7.88,0,0,0-5.51-1.75h0a.58.58,0,0,0-.58.77.5.5,0,0,0,.24.36,11.81,11.81,0,0,0,4.17,3.85,62.48,62.48,0,0,1-8.18-.5.52.52,0,0,0-.31.05,150.7,150.7,0,0,0-15.56-5C49.08,23.63,43.91,23,41,22.76a.61.61,0,0,0-1,.54c.42,2.06,2.49,3.32,4.7,4.07a6.22,6.22,0,0,0-2.72,2.06.74.74,0,0,0-.26.37h0c-.38.58.39,1.16.86.8a5.63,5.63,0,0,0,6.59-2.09l0-.06q7.22,1.91,14.2,4.52a19.5,19.5,0,0,1-7.6,2.69,5,5,0,0,0-1.4-1.91,5.87,5.87,0,0,0-4.18-1.49.63.63,0,0,0-.31,1.15.13.13,0,0,0,0,.06,4.91,4.91,0,0,0,1.56,2.36l-3-.48c-1.83-3.24-5.82-2-8.88-1.7a.5.5,0,0,0-.41.71.58.58,0,0,0,.06.67c2.11,2.68,6.31,5.07,9,1.6a.41.41,0,0,0,.07-.11l2.88.46a3.9,3.9,0,0,0-1.54,1.87.53.53,0,0,0,0,.41.56.56,0,0,0,.36.74,4.56,4.56,0,0,0,5.77-3,.46.46,0,0,0,.17-.14A20.09,20.09,0,0,0,65,33.36h0l.1,0a63.9,63.9,0,0,0,11.13.43l.07,0a.69.69,0,0,0,.41,0,63.59,63.59,0,0,0,18.93-4,.51.51,0,0,0,.28-.23,47.2,47.2,0,0,0,8.59-1.24.6.6,0,0,0-.27-1.17A51.87,51.87,0,0,1,85.77,28a.56.56,0,0,0-.2-.24q-4-3-8.22-5.82c1.46-.55,1.39-2.48,1.23-3.84a8.71,8.71,0,0,0-3.44-5.67.51.51,0,0,0-.77.13.45.45,0,0,0-.33.28c-.61,1.27-.23,2.57,0,3.91a15.05,15.05,0,0,0,1.15,3.8q-5.64-3.59-11.59-6.68c.55-3.8-3.91-6.66-6.89-7.91a.63.63,0,0,0-.26-.05.57.57,0,0,0-.63.71,12,12,0,0,0,3.93,6.26,6.07,6.07,0,0,0-4.52,1.19.55.55,0,0,0,.2,1,.45.45,0,0,0,.13.1c2.29,1.19,5.55,1.73,7.64-.12A154.16,154.16,0,0,1,83.49,27.68C76,26.57,68.55,24.33,61.3,22.07a.61.61,0,0,0-.15-.27A86.11,86.11,0,0,0,46.42,9.29c1.55-1.52.4-4-1-5.44a.57.57,0,0,0-.5-.18.53.53,0,0,0-.85-.08c-1.07,1.14-.83,2.69-.22,4.07q-3.39-2.12-7-3.91C37,2.5,35.49,1.82,34.47,1.38A12.67,12.67,0,0,0,28.21.45C27.68.5,27.65,1.06,27.93,1.39Zm5.41,6.34A2.89,2.89,0,0,1,33.56,12,4.81,4.81,0,0,1,33.34,7.73ZM20.75,3.15a1.49,1.49,0,0,1,.18-1.7,4.41,4.41,0,0,1,1.34,1.62,10.69,10.69,0,0,1,.35,1.62.26.26,0,0,0-.09-.05A3.66,3.66,0,0,1,20.75,3.15Zm-2.58,3.3A2.88,2.88,0,0,1,21.9,5.8a.58.58,0,0,0,0,.5C21.12,7.35,19.38,7,18.17,6.45ZM1.35,6.32h0C4.29,6.2,7.05,6.6,9,9a14.3,14.3,0,0,1-3.55.52A4.91,4.91,0,0,1,1.35,6.32Zm13.83,8a9.21,9.21,0,0,1,2,.78c.23.13,1.86,1.62,1.71,2.23h-.06A4.76,4.76,0,0,1,15.18,14.29ZM7,12.89c1.79.2,4.07.32,4.14,2C9.38,15.77,7.9,14.37,7,12.89Zm5.57,7.26a6.9,6.9,0,0,1-2.7-.47c1.22-1.32,4.39-1.11,6-.9C16.12,19.69,13,20.12,12.56,20.15Zm17.17,2.48a7.11,7.11,0,0,1-3.83,1c1.41-1.75,3.74-2.36,6-2.63l-.15.13A12,12,0,0,1,29.73,22.63Zm40.9,6.29a7,7,0,0,1,2.37.66c.74.35,2.71,1.68,2.64,2.84A10.54,10.54,0,0,1,70.63,28.92ZM41.51,24c2.34.16,6,.65,6.49,3C45.9,26.64,42.7,25.79,41.51,24Zm1.81,5.65a5,5,0,0,1,4.52-1.42A4.47,4.47,0,0,1,43.32,29.64Zm7.83,3.89a5,5,0,0,1,1.48.47,4.89,4.89,0,0,1,1.89,1.7l-.08.1A3.7,3.7,0,0,1,51.15,33.53Zm-10.68,1.2c2.34-.36,5.44-1.11,6.81,1.11a.64.64,0,0,0-.17.16C45.13,38.58,42.15,36.6,40.47,34.73ZM50.77,39c.66-1.29,2.12-1.67,3.51-1.83A3.35,3.35,0,0,1,50.77,39ZM74.94,13.8a8.23,8.23,0,0,1,2,2.82c.37.81,1.26,3.93-.19,4.23h0a12.15,12.15,0,0,1-1.3-3.33A9.19,9.19,0,0,1,74.94,13.8ZM57.37,7.56c2.28,1.14,5,3.15,5.08,5.69A10.79,10.79,0,0,1,57.37,7.56Zm-.49,6.85a7.21,7.21,0,0,1,5,.07A5.82,5.82,0,0,1,56.88,14.41ZM47.59,12.3a5.1,5.1,0,0,1-3.34,0C44.82,11.57,46.48,11.93,47.59,12.3ZM44.7,4.8c.82.91,1.9,2.57.93,3.59C45,7.41,44.18,5.82,44.7,4.8ZM32.54,2c.46.12,3.36,1,3.17,1.74A3.53,3.53,0,0,1,32,4.34a6.75,6.75,0,0,1-2.84-2.4.55.55,0,0,0,.1-.36A11.66,11.66,0,0,1,32.54,2Z"/></g></g></svg>