<svg width="21" height="21" viewBox="0 0 21 21" fill="none" xmlns="http://www.w3.org/2000/svg">
<path d="M6.023 0C4.42609 0.00158844 2.89504 0.636663 1.76585 1.76585C0.636663 2.89504 0.00158844 4.42609 0 6.023V14.362C0.00158844 15.9589 0.636663 17.49 1.76585 18.6192C2.89504 19.7483 4.42609 20.3834 6.023 20.385H14.362C15.9589 20.3834 17.49 19.7483 18.6192 18.6192C19.7483 17.49 20.3834 15.9589 20.385 14.362V6.023C20.3834 4.42609 19.7483 2.89504 18.6192 1.76585C17.49 0.636663 15.9589 0.00158844 14.362 0H6.023ZM15.752 3.706C15.9353 3.706 16.1146 3.76037 16.267 3.86223C16.4195 3.96409 16.5383 4.10887 16.6084 4.27825C16.6786 4.44764 16.697 4.63403 16.6612 4.81385C16.6254 4.99367 16.5371 5.15885 16.4075 5.28849C16.2778 5.41813 16.1127 5.50642 15.9328 5.54219C15.753 5.57796 15.5666 5.5596 15.3973 5.48944C15.2279 5.41927 15.0831 5.30046 14.9812 5.14801C14.8794 4.99557 14.825 4.81634 14.825 4.633C14.8255 4.38731 14.9234 4.15183 15.0971 3.9781C15.2708 3.80436 15.5063 3.70653 15.752 3.706ZM10.193 5.1C11.2017 5.1 12.1877 5.39911 13.0264 5.95951C13.8651 6.5199 14.5188 7.31641 14.9048 8.24831C15.2908 9.18022 15.3918 10.2057 15.195 11.195C14.9982 12.1843 14.5125 13.093 13.7992 13.8062C13.086 14.5195 12.1773 15.0052 11.188 15.202C10.1987 15.3988 9.17322 15.2978 8.24131 14.9118C7.30941 14.5258 6.5129 13.8721 5.95251 13.0334C5.39211 12.1947 5.093 11.2087 5.093 10.2C5.093 8.8474 5.63032 7.55019 6.58676 6.59376C7.54319 5.63732 8.8404 5.1 10.193 5.1ZM10.193 6.027C9.36825 6.027 8.56203 6.27157 7.87627 6.72977C7.19052 7.18798 6.65604 7.83924 6.34042 8.60121C6.02481 9.36318 5.94223 10.2016 6.10313 11.0105C6.26403 11.8194 6.66118 12.5625 7.24436 13.1456C7.82755 13.7288 8.57057 14.126 9.37947 14.2869C10.1884 14.4478 11.0268 14.3652 11.7888 14.0496C12.5508 13.734 13.202 13.1995 13.6602 12.5137C14.1184 11.828 14.363 11.0217 14.363 10.197C14.3625 9.09084 13.9231 8.03008 13.1413 7.24753C12.3595 6.46499 11.2992 6.02459 10.193 6.023V6.027Z" fill="url(#paint0_linear_311_2)"/>
<defs>
<linearGradient id="paint0_linear_311_2" x1="10.1925" y1="0" x2="10.1925" y2="20.385" gradientUnits="userSpaceOnUse">
<stop stop-color="#00302C"/>
<stop offset="1" stop-color="#0E5D57"/>
</linearGradient>
</defs>
</svg>
