<svg width="887" height="298" viewBox="0 0 887 298" fill="none" xmlns="http://www.w3.org/2000/svg">
<path d="M46.5025 215.65C54.9025 206.083 59.1025 191.792 59.1025 172.775C59.1025 166.942 58.7525 160.35 58.0525 153C57.0025 141.1 54.3775 124.533 50.1775 103.3C45.5109 78.2167 43.1775 60.7749 43.1775 50.9749C43.1775 43.9749 44.3442 38.4917 46.6775 34.525C43.7609 39.3083 42.3025 46.075 42.3025 54.825C42.3025 57.625 42.4775 61.3583 42.8275 66.025C43.4109 73.725 45.5692 87.025 49.3025 105.925C51.2859 115.842 53.1525 125.875 54.9025 136.025C57.0025 148.975 58.0525 161.05 58.0525 172.25C58.0525 190.567 54.2025 205.033 46.5025 215.65ZM31.8025 228.25C37.9859 221.95 42.7692 215.125 46.1525 207.775C51.2859 196.342 53.8525 183.042 53.8525 167.875C53.8525 165.192 53.6775 161.05 53.3275 155.45C52.9775 149.85 52.1025 142.733 50.7025 134.1C49.3025 125.35 47.7275 116.6 45.9775 107.85C44.2275 98.983 42.6525 90.35 41.2525 81.95C39.9692 73.4333 39.2692 65.325 39.1525 57.625V56.0499C39.1525 40.1832 43.0025 27.875 50.7025 19.125L50.5275 18.95C41.8942 28.4 37.5775 41.1166 37.5775 57.0999L37.7525 63.925C37.8692 71.625 40.2025 86.7333 44.7525 109.25C46.3859 117.533 47.9025 125.933 49.3025 134.45C51.5192 147.75 52.6275 159.125 52.6275 168.575C52.6275 173.942 52.2192 179.892 51.4025 186.425C50.5859 192.958 48.6025 199.9 45.4525 207.25C42.3025 214.717 37.7525 221.717 31.8025 228.25ZM20.4275 239.625C18.0942 239.625 15.7025 239.217 13.2525 238.4C4.7359 235.25 0.477539 230.35 0.477539 223.7C0.477539 221.25 1.11921 218.917 2.4025 216.7C5.4359 211.567 9.8109 206.783 15.5275 202.35C22.4109 196.983 28.1859 193.133 32.8525 190.8C36.8192 188.817 39.8525 187.125 41.9525 185.725C42.7692 184.675 43.3525 180.183 43.7025 172.25L44.0525 165.95L43.8775 161.75C43.7609 160.933 43.7025 160.058 43.7025 159.125C43.7025 158.075 43.7609 157.142 43.8775 156.325C43.8775 154.108 43.7609 152.533 43.5275 151.6C43.1775 150.2 42.8859 147.4 42.6525 143.2C42.6525 141.8 42.3609 140.108 41.7775 138.125C41.1942 136.025 40.9025 134.567 40.9025 133.75V133.4C40.9025 132.233 40.7859 131.417 40.5525 130.95C40.3192 130.483 40.0859 129.958 39.8525 129.375C39.7359 128.675 39.6775 128.092 39.6775 127.625C39.6775 126.108 39.1525 123.775 38.1025 120.625C37.4025 117.825 36.8192 115.083 36.3525 112.4L34.6025 104.7L33.2025 96.3C32.3859 93.15 31.7442 89.125 31.2775 84.225C31.1609 83.0583 30.9859 81.95 30.7525 80.9L30.2275 76.175C30.2275 74.3083 30.1692 72.9667 30.0525 72.15L29.8775 66.375C29.8775 56.925 30.5775 48.7583 31.9775 41.875C32.6775 38.8417 34.0192 35.2833 36.0025 31.2C38.1025 27.1167 39.9109 24.2583 41.4275 22.625C42.1275 21.925 42.8275 21.1082 43.5275 20.1749C47.1442 15.3916 52.2775 11.075 58.9275 7.22495C65.2275 3.84161 73.3942 1.62494 83.4275 0.574951H84.8275C87.6275 0.574951 90.7775 1.09994 94.278 2.14994C98.478 3.43327 102.153 5.06665 105.303 7.04995C110.553 10.3167 114.519 16.15 117.203 24.5499C119.069 30.3832 120.003 36.0417 120.003 41.525C120.003 48.175 119.069 55.35 117.203 63.05C115.919 68.5333 114.694 72.675 113.528 75.475C111.078 80.6083 109.328 83.175 108.278 83.175C107.228 83.175 106.703 83 106.703 82.65V82.125C106.703 81.5417 107.053 80.6667 107.753 79.5C111.369 72.85 113.994 63.4583 115.628 51.325C116.211 46.775 116.503 42.75 116.503 39.25C116.503 34 115.394 28.575 113.178 22.975C111.661 18.6583 109.444 15.1 106.528 12.3C103.728 9.49995 100.578 7.45825 97.078 6.17495C93.578 4.89165 90.0192 4.24995 86.4025 4.24995C85.3525 4.24995 84.0109 4.42495 82.3775 4.77495C77.0109 5.94165 72.8109 7.45825 69.7775 9.32495C66.8609 11.075 64.3525 13.6417 62.2525 17.025C55.4859 27.2917 51.6942 39.1916 50.8775 52.7249C50.7609 54.7082 50.7025 57.1582 50.7025 60.0749L50.8775 62.175C50.8775 67.8917 51.8692 75.3583 53.8525 84.575L55.2525 92.1C56.1859 97 57.5275 102.542 59.2775 108.725L62.0775 120.8C62.0775 121.15 62.4859 122.958 63.3025 126.225C64.9359 132.992 65.9275 139.525 66.2775 145.825L67.3275 168.925C67.4442 169.158 67.5025 171.258 67.5025 175.225L73.2775 172.775C77.4775 171.025 82.2609 168.283 87.6275 164.55C93.111 160.7 98.478 156.383 103.728 151.6C108.978 146.7 113.528 141.742 117.378 136.725C117.494 136.492 117.669 136.317 117.903 136.2C118.136 136.2 118.544 136.375 119.128 136.725C119.711 136.958 120.061 137.308 120.178 137.775C120.178 138.358 119.828 139.117 119.128 140.05C106.178 157.433 89.9609 170.325 70.4775 178.725C68.7275 179.542 67.7359 180.125 67.5025 180.475C67.3859 180.708 67.3275 181 67.3275 181.35C67.3275 184.383 66.9192 188 66.1025 192.2C65.7525 194.067 65.4609 195.175 65.2275 195.525C64.9942 195.875 64.8775 196.458 64.8775 197.275C64.8775 198.208 64.6442 199.375 64.1775 200.775C63.3609 202.058 62.8359 203.342 62.6025 204.625C62.1359 206.725 61.3775 208.825 60.3275 210.925C58.9275 213.142 58.2275 214.717 58.2275 215.65V215.825C58.2275 216.642 56.8859 218.742 54.2025 222.125C53.0359 223.292 52.0442 224.575 51.2275 225.975C49.7109 228.308 47.4942 230.467 44.5775 232.45C43.5275 232.683 42.3609 233.325 41.0775 234.375C34.4275 237.875 27.5442 239.625 20.4275 239.625ZM12.7275 232.1C15.8775 232.1 20.0775 230 25.3275 225.8C27.7775 223.7 29.8192 221.6 31.4525 219.5C32.2692 218.567 32.6775 217.867 32.6775 217.4C32.7942 217.05 33.6692 215.242 35.3025 211.975L37.5775 206.375V206.025C37.5775 205.558 37.8692 204.625 38.4525 203.225C39.0359 201.825 39.5025 200.075 39.8525 197.975L41.4275 191.85C32.7942 196.4 25.7359 201.125 20.2525 206.025C11.9692 213.375 7.8275 219.733 7.8275 225.1C7.8275 226.383 8.0609 227.608 8.5275 228.775C9.4609 230.992 10.8609 232.1 12.7275 232.1ZM140.899 141.1L143.699 139C151.749 132.117 155.774 123.775 155.774 113.975L155.599 111.7C152.332 115.317 150.582 117.475 150.349 118.175C150.232 118.875 149.765 119.808 148.949 120.975C148.132 122.142 147.49 123.367 147.024 124.65C146.557 125.817 146.207 126.575 145.974 126.925C145.74 127.275 145.565 127.742 145.449 128.325C145.449 128.908 145.04 129.9 144.224 131.3C143.407 132.7 142.94 134.217 142.824 135.85C142.474 136.9 142.065 137.892 141.599 138.825C141.132 139.642 140.84 140.342 140.724 140.925L140.899 141.1ZM141.949 194.3C132.499 194.3 125.149 191.267 119.899 185.2C114.649 179.133 112.024 171.492 112.024 162.275C112.024 158.542 112.374 155.042 113.074 151.775C113.89 147.575 114.357 145.125 114.474 144.425C114.474 143.725 114.707 142.675 115.174 141.275C116.107 138.125 116.982 135.908 117.799 134.625C118.149 134.158 118.324 133.692 118.324 133.225C118.324 132.758 119.199 130.892 120.949 127.625C122.699 124.242 123.749 122.433 124.099 122.2C124.915 121.5 125.674 120.567 126.374 119.4C128.59 116.017 131.565 112.867 135.299 109.95C139.965 106.333 144.224 104.35 148.074 104L152.449 103.825C153.849 103.825 154.84 103.942 155.424 104.175C160.907 106.275 163.649 109.717 163.649 114.5C163.649 118.467 162.19 123.367 159.274 129.2C155.307 136.433 149.182 142.325 140.899 146.875L138.799 147.75C138.799 147.983 138.565 148.975 138.099 150.725C137.749 152.475 137.574 153.758 137.574 154.575C137.457 155.975 137.165 156.85 136.699 157.2C135.765 159.65 134.832 167.292 133.899 180.125C133.899 183.158 134.132 185.2 134.599 186.25C135.065 187.3 136.874 188.117 140.024 188.7C142.94 188.7 146.149 187.708 149.649 185.725C155.599 181.525 160.615 176.158 164.699 169.625C165.282 169.625 167.849 165.017 172.399 155.8C176.832 148.1 180.215 141.858 182.549 137.075C182.899 136.142 183.482 135.675 184.299 135.675C186.049 135.675 186.924 136.317 186.924 137.6C186.924 138.65 183.19 146.292 175.724 160.525C174.674 162.625 173.857 164.375 173.274 165.775C171.64 169.392 168.432 174.058 163.649 179.775C163.649 180.358 161.899 182.458 158.399 186.075C155.482 189.225 152.857 191.383 150.524 192.55C148.307 193.717 145.449 194.3 141.949 194.3ZM120.774 175.05L121.124 166.825C121.94 154.808 124.274 144.483 128.124 135.85C129.057 133.517 132.732 126.108 139.149 113.625C135.065 118.292 131.565 123.892 128.649 130.425C123.282 141.858 120.599 154.342 120.599 167.875L120.774 175.05ZM125.499 179.075L125.849 170.5C126.082 165.017 126.724 159.65 127.774 154.4C128.824 149.15 130.282 144.017 132.149 139C134.015 133.867 135.999 128.675 138.099 123.425C129.582 136.492 125.324 152.883 125.324 172.6L125.499 179.075ZM134.415 294.575L135.465 294.225C137.332 294.225 140.132 292.358 143.865 288.625C147.482 284.892 149.757 281.742 150.69 279.175L151.74 277.425L153.84 272.7C156.174 267.333 157.34 263.892 157.34 262.375C157.34 262.025 157.632 261.092 158.215 259.575C158.799 258.175 159.44 255.55 160.14 251.7C160.49 249.95 160.782 248.783 161.015 248.2C161.132 247.733 161.365 246.742 161.715 245.225C162.065 243.825 162.415 242.308 162.765 240.675C162.999 239.042 163.232 237.642 163.465 236.475C163.815 234.258 164.107 232.333 164.34 230.7C164.574 229.067 164.807 228.017 165.04 227.55C165.157 227.2 165.39 226.15 165.74 224.4C165.974 221.95 166.382 219.733 166.965 217.75V216.875L164.69 220.025C163.407 221.542 161.89 223.583 160.14 226.15L155.94 232.275C152.79 237.175 150.224 240.85 148.24 243.3C141.474 252.75 136.749 260.1 134.065 265.35C130.799 271.65 129.165 278.592 129.165 286.175C129.165 289.208 130.215 291.658 132.315 293.525C133.015 294.225 133.54 294.575 133.89 294.575H134.415ZM136.515 297.725C131.499 297.725 127.94 295.742 125.84 291.775C125.257 290.608 124.907 289.558 124.79 288.625C124.557 287.692 124.44 285.825 124.44 283.025C124.44 281.275 124.674 279.292 125.14 277.075C127.824 265.175 135.057 250.883 146.84 234.2L153.315 225.625C156.465 221.192 161.015 215.125 166.965 207.425C168.832 204.975 169.824 202.817 169.94 200.95C169.94 199.083 169.999 198.033 170.115 197.8C170.232 197.683 170.349 197.392 170.465 196.925C170.582 196.458 170.699 195.933 170.815 195.35C170.815 194.767 170.932 194.067 171.165 193.25C171.865 190.1 172.215 188.175 172.215 187.475C172.332 186.192 172.507 185.083 172.74 184.15C173.79 177.967 174.607 172.308 175.19 167.175C175.19 165.542 175.307 164.608 175.54 164.375C175.774 164.142 176.065 163.092 176.415 161.225C176.415 160.642 176.474 160.117 176.59 159.65C176.707 158.367 176.824 157.492 176.94 157.025C177.057 156.558 177.29 155.8 177.64 154.75C177.64 153.583 177.815 152.825 178.165 152.475C178.399 152.125 178.574 151.658 178.69 151.075C178.924 148.508 179.274 146.467 179.74 144.95L180.965 141.975C181.315 140.342 182.307 136.492 183.94 130.425L185.69 123.6C186.04 122.2 186.215 121.325 186.215 120.975C186.215 120.625 186.624 119.808 187.44 118.525L187.615 117.825C187.615 117.125 187.732 116.775 187.965 116.775L189.715 112.75C191.349 108.55 193.565 106.45 196.365 106.45C201.732 106.45 204.415 109.775 204.415 116.425C204.415 118.758 204.182 122.55 203.715 127.8C202.199 144.017 200.974 153.875 200.04 157.375C199.807 157.842 199.632 158.542 199.515 159.475C199.049 163.908 198.699 166.3 198.465 166.65C198.349 167 198.29 167.233 198.29 167.35V167.7C198.524 167.7 199.632 166.475 201.615 164.025C210.015 153.408 218.182 144.658 226.115 137.775C227.632 136.492 228.799 135.85 229.615 135.85C230.199 135.85 230.724 136.083 231.19 136.55C231.657 137.017 231.89 137.483 231.89 137.95C231.89 138.417 231.249 139.117 229.965 140.05C227.982 141.45 217.832 152.825 199.515 174.175C197.415 176.275 195.724 181.117 194.44 188.7L193.215 193.95C192.749 196.283 192.107 199.083 191.29 202.35C190.94 204.567 190.415 206.958 189.715 209.525C189.132 211.275 188.49 213.958 187.79 217.575C187.674 218.158 187.44 218.625 187.09 218.975C186.857 219.325 186.74 219.967 186.74 220.9C186.74 221.833 186.565 222.65 186.215 223.35C185.865 224.167 185.399 225.508 184.815 227.375L183.94 230.175C182.89 233.325 182.365 235.075 182.365 235.425C182.365 235.892 182.249 236.533 182.015 237.35C181.665 238.167 181.315 239.1 180.965 240.15C180.615 241.2 180.207 242.25 179.74 243.3C178.574 245.633 177.99 247.267 177.99 248.2C177.99 248.55 177.582 249.425 176.765 250.825C175.949 252.225 175.54 253.1 175.54 253.45C175.54 253.917 174.899 255.667 173.615 258.7C173.032 259.867 172.682 260.742 172.565 261.325C172.332 261.908 172.04 262.433 171.69 262.9C171.107 264.067 170.815 264.767 170.815 265C170.815 265.233 170.699 265.467 170.465 265.7V265.875C169.999 266.108 169.357 267.158 168.54 269.025L165.565 274.1L162.765 278.3C158.682 284.717 153.724 289.85 147.89 293.7C143.924 296.383 140.132 297.725 136.515 297.725ZM204.24 89.825H203.715C199.515 89.825 197.415 87.725 197.415 83.525C197.415 75.125 199.165 70.8083 202.665 70.575C204.182 70.575 206.049 71.2167 208.265 72.5C209.782 73.3167 210.832 74.1917 211.415 75.125C212.115 76.0583 212.465 77.575 212.465 79.675C212.465 81.1917 212.115 82.7667 211.415 84.4C209.782 88.0167 207.39 89.825 204.24 89.825ZM171.34 246.975C174.724 236.825 178.749 222.533 183.415 204.1C190.882 174 194.615 153.7 194.615 143.2C194.615 141.567 194.499 140.167 194.265 139C193.915 144.483 192.399 154.05 189.715 167.7C187.032 181.35 183.94 195.642 180.44 210.575C176.94 225.625 173.907 237.758 171.34 246.975ZM169.94 235.775C173.674 223.525 178.34 204.45 183.94 178.55C189.074 154.983 191.64 139.117 191.64 130.95L191.465 128.325C190.765 134.975 189.132 144.892 186.565 158.075C184.115 171.142 181.374 184.792 178.34 199.025C175.307 213.258 172.507 225.508 169.94 235.775ZM204.765 87.55C206.165 87.55 207.332 87.025 208.265 85.975C209.315 84.8083 209.957 83.5833 210.19 82.3C210.54 81.0167 210.715 79.9667 210.715 79.15C210.715 76.2333 209.607 74.25 207.39 73.2C208.907 74.8333 209.665 76.2917 209.665 77.575C209.782 78.7417 209.84 79.5 209.84 79.85C209.84 81.6 209.374 83.2333 208.44 84.75C207.624 86.2667 206.282 87.2 204.415 87.55H204.765ZM245.662 188.35C246.362 188.35 247.179 188.117 248.112 187.65C250.212 186.717 253.42 183.042 257.737 176.625L260.712 172.075C265.262 165.542 268.587 158.017 270.687 149.5L268.587 148.975C262.87 147.342 258.437 144.367 255.287 140.05C254.82 139.117 254.354 138.65 253.887 138.65C253.42 138.65 253.129 139.117 253.012 140.05C253.012 140.983 252.72 141.742 252.137 142.325C251.67 143.258 251.379 144.192 251.262 145.125C251.262 145.942 250.795 147.342 249.862 149.325C249.512 150.025 249.279 150.725 249.162 151.425L246.187 160.175C245.604 162.042 245.195 163.733 244.962 165.25L243.912 168.75C242.862 172.833 242.337 176.742 242.337 180.475C242.337 181.058 242.337 182.05 242.337 183.45C242.337 184.85 242.804 186.133 243.737 187.3C244.204 188 244.845 188.35 245.662 188.35ZM271.387 145.125C271.504 143.142 271.679 141.1 271.912 139C272.145 136.9 272.262 134.975 272.262 133.225L271.912 130.425C270.979 120.625 268.237 115.55 263.687 115.2C261.47 115.2 260.362 116.6 260.362 119.4C260.362 120.333 260.187 121.208 259.837 122.025C259.37 122.492 258.962 123.425 258.612 124.825C258.495 125.408 258.32 125.992 258.087 126.575C257.854 127.158 257.679 127.625 257.562 127.975C257.445 128.325 257.27 128.733 257.037 129.2C256.92 129.55 256.862 129.842 256.862 130.075C256.862 132.408 258.379 135.617 261.412 139.7C263.162 141.8 264.737 143.2 266.137 143.9C266.837 144.133 267.537 144.425 268.237 144.775C269.054 145.008 270.104 145.125 271.387 145.125ZM244.962 193.6C243.329 193.6 240.82 192.725 237.437 190.975C233.587 189.108 230.787 186.833 229.037 184.15C227.637 182.167 226.47 179.192 225.537 175.225C224.02 169.392 223.262 164.958 223.262 161.925C223.262 160.058 224.195 153.992 226.062 143.725C226.529 140.925 226.995 139.292 227.462 138.825C227.929 138.358 228.279 137.367 228.512 135.85C228.745 134.217 229.095 133.167 229.562 132.7C230.029 132.117 230.262 131.65 230.262 131.3C230.262 130.833 230.437 130.367 230.787 129.9C232.187 127.567 232.945 126.05 233.062 125.35C233.295 124.533 233.645 123.892 234.112 123.425C234.695 122.842 235.104 122.083 235.337 121.15C235.687 120.683 236.037 120.158 236.387 119.575C236.854 118.875 237.32 118.292 237.787 117.825C238.837 117.008 239.362 116.367 239.362 115.9C239.362 115.317 239.712 114.675 240.412 113.975C243.562 110.825 245.779 109.017 247.062 108.55C248.345 107.967 250.037 107.675 252.137 107.675C254.937 107.675 257.329 108.55 259.312 110.3C260.012 111 261.179 111.467 262.812 111.7C264.445 111.933 266.195 112.633 268.062 113.8C273.429 117.3 276.112 124.533 276.112 135.5L275.937 141.625L275.762 144.075C275.762 144.425 275.762 144.892 275.762 145.475C275.879 146.058 276.637 146.35 278.037 146.35C278.62 146.35 279.379 146.233 280.312 146C288.595 145.067 296.062 142.092 302.712 137.075C303.529 136.492 304.287 136.2 304.987 136.2C305.804 136.2 306.212 136.433 306.212 136.9C306.212 137.367 305.979 137.95 305.512 138.65C302.129 141.8 297.754 144.425 292.387 146.525C287.72 148.392 282.879 149.383 277.862 149.5L274.712 149.85L272.787 156.325C269.987 167.058 265.379 176.508 258.962 184.675L257.037 186.95C255.17 189.167 252.954 190.858 250.387 192.025C248.17 193.075 246.362 193.6 244.962 193.6ZM230.612 169.8C231.079 155.45 233.879 143.142 239.012 132.875C240.295 130.542 244.262 123.775 250.912 112.575C246.712 116.892 242.979 122.025 239.712 127.975C233.529 139.408 230.437 151.658 230.437 164.725L230.612 169.8ZM236.387 181C235.92 176.683 235.687 172.658 235.687 168.925C235.687 159.825 237.087 151.425 239.887 143.725C240.82 141.275 243.912 133.983 249.162 121.85C245.545 126.75 242.512 132.35 240.062 138.65C236.562 147.283 234.812 156.325 234.812 165.775C234.812 170.792 235.337 175.867 236.387 181ZM318.245 190.275C319.645 190.275 321.336 189.458 323.32 187.825C325.653 185.842 326.878 184.617 326.995 184.15C329.561 181.35 331.895 177.733 333.995 173.3C336.795 167.817 338.72 162.8 339.77 158.25L342.395 151.075C346.011 141.158 348.053 132.525 348.52 125.175C348.52 123.658 348.228 122.025 347.645 120.275C346.361 115.725 344.203 113.333 341.17 113.1C338.603 113.1 335.978 116.075 333.295 122.025C333.061 122.492 332.828 122.9 332.595 123.25C332.478 123.483 332.361 123.833 332.245 124.3C331.428 126.633 330.436 128.967 329.27 131.3C328.22 133.633 327.695 134.975 327.695 135.325C327.695 136.375 326.878 138.125 325.245 140.575C324.778 141.392 324.428 142.442 324.195 143.725C323.961 144.892 323.611 145.825 323.145 146.525C322.678 147.225 322.27 148.1 321.92 149.15C320.87 151.717 320.345 153.35 320.345 154.05C320.345 154.633 320.053 155.1 319.47 155.45C319.47 155.8 319.353 156.267 319.12 156.85C318.886 157.317 318.711 157.842 318.595 158.425C318.595 158.892 318.42 159.825 318.07 161.225C317.253 162.508 316.786 164.55 316.67 167.35C316.67 168.4 316.495 169.275 316.145 169.975C315.678 171.375 315.445 174.992 315.445 180.825C315.445 187.125 316.378 190.275 318.245 190.275ZM310.02 180.65L309.845 176.45C309.845 164.2 311.945 153.35 316.145 143.9C317.078 141.683 320.578 134.8 326.645 123.25C315.095 136.2 309.32 152.008 309.32 170.675C309.32 173.942 309.553 177.267 310.02 180.65ZM304.245 169.275C305.645 154.925 309.261 143.025 315.095 133.575C316.378 131.358 320.753 125 328.22 114.5C321.22 120.567 315.561 128.267 311.245 137.6C306.578 147.517 304.245 158.075 304.245 169.275ZM365.145 135.15C370.745 109.833 378.795 87.725 389.295 68.825C376.695 87.025 368.703 108.258 365.32 132.525L365.145 135.15ZM358.67 160.35C359.486 135.033 364.503 111.817 373.72 90.7C363.336 108.083 358.145 127.217 358.145 148.1C358.145 152.067 358.32 156.15 358.67 160.35ZM384.22 103.825C384.803 103.825 387.895 101.842 393.495 97.875C406.095 87.9583 415.136 77.4583 420.62 66.375C423.42 60.5417 424.82 56.4 424.82 53.95C424.82 52.7833 424.586 51.2667 424.12 49.4C423.653 47.5333 423.128 46.5416 422.545 46.4249C419.745 46.4249 416.478 48.4083 412.745 52.375C409.011 56.225 407.086 58.5583 406.97 59.375C406.853 60.1917 406.503 60.7166 405.92 60.9499C403.236 64.7999 401.836 67.3083 401.72 68.475C401.603 68.825 401.253 69.1167 400.67 69.35C400.086 69.5833 399.736 70.1667 399.62 71.1C399.036 72.85 398.336 74.25 397.52 75.3C397.17 75.65 396.47 76.9917 395.42 79.325C393.203 83.4083 391.803 86.3833 391.22 88.25C391.103 89.0667 390.87 89.7667 390.52 90.35C390.17 90.8167 389.761 91.6333 389.295 92.8C387.661 96.417 386.786 98.458 386.67 98.925C386.67 99.392 386.495 99.683 386.145 99.8C385.911 99.917 385.736 100.325 385.62 101.025C385.503 101.725 385.211 102.25 384.745 102.6C384.395 102.95 384.22 103.3 384.22 103.65V103.825ZM348.695 148.8L342.92 166.125C336.27 185.492 328.57 195.292 319.82 195.525C318.303 195.525 316.786 195.292 315.27 194.825C305.353 191.442 299.928 183.858 298.995 172.075C298.995 171.025 298.82 169.45 298.47 167.35C298.12 166.067 297.945 163.558 297.945 159.825C297.945 156.208 298.12 153.992 298.47 153.175C298.703 152.242 298.82 151.133 298.82 149.85C298.82 147.983 299.403 145.767 300.57 143.2C301.036 142.5 301.27 141.742 301.27 140.925C301.27 140.108 301.97 138.242 303.37 135.325C304.886 132.408 305.645 130.892 305.645 130.775C305.645 130.542 305.761 130.25 305.995 129.9C307.628 128.267 308.62 126.925 308.97 125.875C309.786 123.892 310.836 122.317 312.12 121.15C312.703 120.45 313.111 119.867 313.345 119.4C314.978 117.3 318.42 114.325 323.67 110.475C327.403 107.792 332.011 106.45 337.495 106.45C339.945 106.45 342.278 106.858 344.495 107.675C348.228 109.192 350.853 111.058 352.37 113.275L352.72 113.8L353.42 116.425L357.27 104.875C357.503 105.342 357.736 105.575 357.97 105.575C358.086 105.575 358.32 105.225 358.67 104.525C359.37 103.008 359.895 101.55 360.245 100.15C360.478 99.333 360.711 98.75 360.945 98.4L361.995 94.9C362.228 93.7333 362.52 92.9167 362.87 92.45C363.22 91.9833 363.628 91.2833 364.095 90.35C364.211 89.65 364.911 88.25 366.195 86.15C368.411 81.7167 369.578 79.2083 369.695 78.625C369.811 77.925 370.628 76.525 372.145 74.425C373.661 72.2083 374.77 70.4 375.47 69C376.753 67.0167 378.27 64.975 380.02 62.875C380.486 62.2917 380.72 61.8249 380.72 61.4749C382.82 58.5582 384.628 56.4582 386.145 55.1749H386.32C386.67 55.1749 386.845 55.0583 386.845 54.825C386.961 54.475 387.253 54.0082 387.72 53.4249L390.345 51.8499C390.695 51.8499 390.986 51.5582 391.22 50.9749C391.57 50.3916 392.153 49.6917 392.97 48.875C397.753 45.4917 400.495 43.7417 401.195 43.625C401.895 43.3917 402.653 42.9833 403.47 42.4C403.82 42.1667 404.461 41.875 405.395 41.525C408.895 40.3583 411.986 39.775 414.67 39.775C419.336 39.775 423.245 41.2917 426.395 44.325C429.078 46.6583 430.42 49.8083 430.42 53.775C430.42 57.1583 429.02 61.8833 426.22 67.95C422.02 76.35 416.07 84.4 408.37 92.1C403.703 96.767 396.645 102.308 387.195 108.725C382.878 111.642 380.661 113.567 380.545 114.5C380.545 115.433 380.136 116.717 379.32 118.35C378.503 119.983 377.92 121.792 377.57 123.775C377.336 125.758 376.928 127.275 376.345 128.325C375.878 129.375 375.586 130.483 375.47 131.65C375.353 132.7 374.945 133.75 374.245 134.8C373.661 135.733 373.253 137.192 373.02 139.175C372.67 141.742 372.028 144.6 371.095 147.75C370.161 150.783 369.461 155.392 368.995 161.575C368.295 165.775 367.945 169.392 367.945 172.425C367.945 176.042 368.703 180.533 370.22 185.9C371.153 188.7 372.67 190.275 374.77 190.625C376.053 190.625 376.986 190.508 377.57 190.275C382.353 188.058 387.253 183.625 392.27 176.975C397.17 170.792 400.903 165.367 403.47 160.7L407.145 154.4L409.945 148.975C413.095 143.725 414.786 140.692 415.02 139.875C416.653 137.308 417.761 136.025 418.345 136.025C419.511 136.258 420.095 136.725 420.095 137.425V137.6C419.978 138.533 419.395 139.992 418.345 141.975C416.595 145.008 414.903 148.567 413.27 152.65C405.453 168.283 397.578 180.475 389.645 189.225C384.278 193.658 379.378 195.992 374.945 196.225C366.778 195.408 360.245 190.217 355.345 180.65C353.361 177.617 351.611 172.6 350.095 165.6L349.745 147.225V145.125L348.695 148.8ZM432.112 188.35C432.812 188.35 433.629 188.117 434.562 187.65C436.662 186.717 439.871 183.042 444.187 176.625L447.162 172.075C451.712 165.542 455.037 158.017 457.137 149.5L455.037 148.975C449.321 147.342 444.887 144.367 441.737 140.05C441.271 139.117 440.804 138.65 440.337 138.65C439.871 138.65 439.579 139.117 439.462 140.05C439.462 140.983 439.171 141.742 438.587 142.325C438.121 143.258 437.829 144.192 437.712 145.125C437.712 145.942 437.246 147.342 436.312 149.325C435.962 150.025 435.729 150.725 435.612 151.425L432.637 160.175C432.054 162.042 431.646 163.733 431.412 165.25L430.362 168.75C429.312 172.833 428.787 176.742 428.787 180.475C428.787 181.058 428.787 182.05 428.787 183.45C428.787 184.85 429.254 186.133 430.187 187.3C430.654 188 431.296 188.35 432.112 188.35ZM457.837 145.125C457.954 143.142 458.129 141.1 458.362 139C458.596 136.9 458.712 134.975 458.712 133.225L458.362 130.425C457.429 120.625 454.687 115.55 450.137 115.2C447.921 115.2 446.812 116.6 446.812 119.4C446.812 120.333 446.637 121.208 446.287 122.025C445.821 122.492 445.412 123.425 445.062 124.825C444.946 125.408 444.771 125.992 444.537 126.575C444.304 127.158 444.129 127.625 444.012 127.975C443.896 128.325 443.721 128.733 443.487 129.2C443.371 129.55 443.312 129.842 443.312 130.075C443.312 132.408 444.829 135.617 447.862 139.7C449.612 141.8 451.187 143.2 452.587 143.9C453.287 144.133 453.987 144.425 454.687 144.775C455.504 145.008 456.554 145.125 457.837 145.125ZM431.412 193.6C429.779 193.6 427.271 192.725 423.887 190.975C420.037 189.108 417.237 186.833 415.487 184.15C414.087 182.167 412.921 179.192 411.987 175.225C410.471 169.392 409.712 164.958 409.712 161.925C409.712 160.058 410.646 153.992 412.512 143.725C412.979 140.925 413.446 139.292 413.912 138.825C414.379 138.358 414.729 137.367 414.962 135.85C415.196 134.217 415.546 133.167 416.012 132.7C416.479 132.117 416.712 131.65 416.712 131.3C416.712 130.833 416.887 130.367 417.237 129.9C418.637 127.567 419.396 126.05 419.512 125.35C419.746 124.533 420.096 123.892 420.562 123.425C421.146 122.842 421.554 122.083 421.787 121.15C422.137 120.683 422.487 120.158 422.837 119.575C423.304 118.875 423.771 118.292 424.237 117.825C425.287 117.008 425.812 116.367 425.812 115.9C425.812 115.317 426.162 114.675 426.862 113.975C430.012 110.825 432.229 109.017 433.512 108.55C434.796 107.967 436.487 107.675 438.587 107.675C441.387 107.675 443.779 108.55 445.762 110.3C446.462 111 447.629 111.467 449.262 111.7C450.896 111.933 452.646 112.633 454.512 113.8C459.879 117.3 462.562 124.533 462.562 135.5L462.387 141.625L462.212 144.075C462.212 144.425 462.212 144.892 462.212 145.475C462.329 146.058 463.087 146.35 464.487 146.35C465.071 146.35 465.829 146.233 466.762 146C475.046 145.067 482.512 142.092 489.162 137.075C489.979 136.492 490.737 136.2 491.437 136.2C492.254 136.2 492.662 136.433 492.662 136.9C492.662 137.367 492.429 137.95 491.962 138.65C488.579 141.8 484.204 144.425 478.837 146.525C474.171 148.392 469.329 149.383 464.312 149.5L461.162 149.85L459.237 156.325C456.437 167.058 451.829 176.508 445.412 184.675L443.487 186.95C441.621 189.167 439.404 190.858 436.837 192.025C434.621 193.075 432.812 193.6 431.412 193.6ZM417.062 169.8C417.529 155.45 420.329 143.142 425.462 132.875C426.746 130.542 430.712 123.775 437.362 112.575C433.162 116.892 429.429 122.025 426.162 127.975C419.979 139.408 416.887 151.658 416.887 164.725L417.062 169.8ZM422.837 181C422.371 176.683 422.137 172.658 422.137 168.925C422.137 159.825 423.537 151.425 426.337 143.725C427.271 141.275 430.362 133.983 435.612 121.85C431.996 126.75 428.962 132.35 426.512 138.65C423.012 147.283 421.262 156.325 421.262 165.775C421.262 170.792 421.787 175.867 422.837 181ZM518.52 121.85C518.637 121.85 519.337 121.267 520.62 120.1C524.703 116.483 528.903 112.167 533.22 107.15C543.137 95.833 550.953 84.1667 556.67 72.15C561.22 62.35 563.495 54.5333 563.495 48.7C563.495 47.1833 563.32 45.6082 562.97 43.9749C562.62 42.2249 562.037 40.7082 561.22 39.4249C560.403 38.1416 559.47 37.5 558.42 37.5C557.953 37.5 556.962 38.0833 555.445 39.25C552.762 41.2333 550.428 43.5667 548.445 46.25C546.462 48.9333 545.47 50.5082 545.47 50.9749C545.47 51.3249 545.003 52.025 544.07 53.075C543.253 54.0083 542.845 54.65 542.845 55C542.845 55.35 542.728 55.5833 542.495 55.7C540.978 57.2167 540.045 59.025 539.695 61.125C539.345 62.2917 538.937 63.2832 538.47 64.0999C537.653 65.4999 537.012 66.9 536.545 68.3L534.795 71.975C534.212 72.5583 533.92 73.2 533.92 73.9C533.92 74.6 533.687 75.1833 533.22 75.65C532.753 76.1167 532.52 76.6417 532.52 77.225C532.52 77.8083 532.17 78.6833 531.47 79.85C530.42 81.7167 529.72 84.2833 529.37 87.55C529.02 88.4833 528.67 89.2417 528.32 89.825C527.27 91.4583 526.512 93.5583 526.045 96.125C525.812 97.408 525.403 98.517 524.82 99.45C524.237 100.267 523.945 101.083 523.945 101.9C523.945 102.717 523.653 103.767 523.07 105.05C522.487 106.333 522.195 107.267 522.195 107.85C522.195 108.317 522.078 109.017 521.845 109.95C520.912 112.633 520.212 114.325 519.745 115.025C518.812 117.475 518.345 119.633 518.345 121.5L518.52 121.85ZM552.47 199.55C548.97 199.55 546.403 199.142 544.77 198.325C539.753 196.925 535.962 194.417 533.395 190.8C533.162 190.1 532.637 189.342 531.82 188.525C529.02 185.492 527.62 179.483 527.62 170.5L528.145 165.95C528.612 160.117 529.312 155.858 530.245 153.175C531.295 150.492 532.52 146 533.92 139.7C534.853 136.433 535.437 133.633 535.67 131.3C535.67 130.6 535.553 130.25 535.32 130.25C534.737 130.25 533.512 131.067 531.645 132.7C525.812 137.717 520.678 144.017 516.245 151.6C510.995 160.35 506.678 168.983 503.295 177.5C501.078 182.983 499.737 187.125 499.27 189.925C498.57 193.308 497.987 195.35 497.52 196.05C497.053 196.75 495.945 197.1 494.195 197.1C490.928 197.1 488.362 196.283 486.495 194.65C485.095 189.867 484.395 184.442 484.395 178.375C484.395 176.042 484.512 173.65 484.745 171.2C486.028 163.033 486.845 155.042 487.195 147.225C487.312 143.258 487.603 140.925 488.07 140.225C488.42 139.525 488.595 138.417 488.595 136.9C488.595 135.267 488.712 134.275 488.945 133.925C489.178 133.575 489.412 132.525 489.645 130.775C489.995 129.025 490.637 125.992 491.57 121.675C492.62 116.308 493.495 113.042 494.195 111.875C494.428 111.408 494.545 110.883 494.545 110.3C494.545 109.6 494.778 108.9 495.245 108.2C495.828 107.033 496.878 104.117 498.395 99.45C498.628 98.517 498.803 97.875 498.92 97.525C499.503 96.708 499.97 95.658 500.32 94.375C500.67 92.975 501.078 91.8083 501.545 90.875C504.345 85.275 505.745 82.125 505.745 81.425C505.745 80.6083 506.387 79.3833 507.67 77.75C507.787 77.5167 507.845 77.3417 507.845 77.225C507.845 76.9917 508.195 76.35 508.895 75.3C510.528 72.7333 511.52 71.0417 511.87 70.225C513.27 67.6583 515.487 64.3917 518.52 60.425C519.92 59.025 521.32 56.3999 522.72 52.5499C523.887 51.3832 524.645 50.45 524.995 49.75C525.928 48.5833 527.503 46.9499 529.72 44.8499C531.937 42.7499 533.045 41.5249 533.045 41.1749C533.045 40.8249 536.428 38.9 543.195 35.4C547.045 33.4167 550.895 32.4249 554.745 32.4249C557.545 32.4249 560.287 33.0666 562.97 34.3499C565.07 35.3999 566.587 36.9167 567.52 38.9C568.57 40.8833 569.095 43.9749 569.095 48.1749L568.92 51.15C564.603 68.1833 556.495 84.2833 544.595 99.45C535.495 111 527.328 119.983 520.095 126.4C517.412 128.617 515.895 130.192 515.545 131.125C514.612 134.858 513.97 137.075 513.62 137.775C513.387 138.358 512.92 139.992 512.22 142.675C511.52 145.242 511.17 146.7 511.17 147.05C511.52 147.05 511.928 146.583 512.395 145.65C514.262 142.733 516.712 139.467 519.745 135.85C525.695 128.733 530.42 124.592 533.92 123.425C534.737 123.192 536.253 123.075 538.47 123.075C543.72 123.075 547.628 124.65 550.195 127.8C552.062 130.133 552.995 131.533 552.995 132C552.995 132.467 553.17 133.225 553.52 134.275C553.637 134.625 553.695 135.733 553.695 137.6V141.1C553.462 145.417 553.345 148.158 553.345 149.325C553.112 153.058 552.703 155.508 552.12 156.675C551.42 161.108 550.895 165.017 550.545 168.4C550.312 170.5 550.078 171.667 549.845 171.9C549.262 172.717 548.97 176.333 548.97 182.75C548.97 184.15 549.203 185.783 549.67 187.65C550.837 191.85 552.645 193.95 555.095 193.95C559.295 193.95 564.37 189.283 570.32 179.95C573.237 175.4 575.687 170.033 577.67 163.85C578.487 162.45 578.895 161.517 578.895 161.05C578.895 160.583 579.012 160.35 579.245 160.35C579.595 160 580.878 156.733 583.095 150.55C584.612 146 585.837 142.15 586.77 139C587.12 137.133 587.762 136.2 588.695 136.2C590.095 136.2 590.795 136.842 590.795 138.125C590.795 139.875 588.987 145.942 585.37 156.325C580.353 171.142 576.737 180.125 574.52 183.275C568.57 192.375 562.853 197.625 557.37 199.025C555.737 199.375 554.103 199.55 552.47 199.55ZM492.445 169.625C494.078 158.075 496.528 146.175 499.795 133.925C503.178 121.558 506.737 110.067 510.47 99.45C514.32 88.8333 517.878 80.2583 521.145 73.725C515.545 81.075 509.595 95.425 503.295 116.775C497.228 137.658 493.612 155.275 492.445 169.625ZM498.395 158.25C500.962 145.767 504.403 132.992 508.72 119.925C513.153 106.742 517.762 94.492 522.545 83.175C527.328 71.8583 531.587 62.8166 535.32 56.0499C529.137 63.6332 522.02 78.8583 513.97 101.725C506.037 124.008 500.845 142.85 498.395 158.25ZM536.895 183.625C536.195 180.942 535.845 178.258 535.845 175.575C535.845 170.908 536.953 164.433 539.17 156.15C541.153 149.383 542.145 144.133 542.145 140.4C542.145 138.067 541.853 135.908 541.27 133.925C541.387 135.092 541.445 136.317 541.445 137.6C541.445 141.333 540.453 146.642 538.47 153.525C536.253 161.808 535.145 168.342 535.145 173.125C535.145 176.508 535.728 180.008 536.895 183.625ZM541.97 187.825C541.27 184.792 540.92 181.7 540.92 178.55C540.92 173.3 541.912 166.008 543.895 156.675C545.645 149.558 546.52 143.958 546.52 139.875C546.52 136.375 545.995 133.225 544.945 130.425C545.295 132.525 545.47 134.742 545.47 137.075C545.47 141.158 544.595 147.167 542.845 155.1C540.745 164.2 539.695 171.142 539.695 175.925C539.695 180.242 540.453 184.208 541.97 187.825ZM598.79 227.2C596.107 227.2 593.949 226.442 592.315 224.925C590.682 223.408 589.865 221.542 589.865 219.325C589.865 217.808 590.274 216.408 591.09 215.125C592.024 213.958 592.84 213.142 593.54 212.675C594.357 212.325 595.524 212.15 597.04 212.15C599.374 212.15 601.065 212.675 602.115 213.725C603.282 214.892 603.982 217.342 604.215 221.075V221.95C604.215 222.533 604.04 223.233 603.69 224.05C602.64 226.15 601.007 227.2 598.79 227.2ZM601.765 222.825C602.115 221.542 602.29 220.375 602.29 219.325C602.29 215.825 600.599 213.667 597.215 212.85C600.249 214.6 601.765 217.925 601.765 222.825ZM631.173 199.725H629.423C626.04 199.725 622.482 198.733 618.748 196.75C613.965 194.3 609.823 190.392 606.323 185.025C604.107 181.758 602.998 179.542 602.998 178.375C602.998 177.208 602.882 176.508 602.648 176.275C602.415 176.042 602.24 175.633 602.123 175.05C602.007 174.35 601.715 173.067 601.248 171.2C600.782 169.217 600.548 166.767 600.548 163.85C600.548 161.983 600.607 159.942 600.723 157.725C600.723 155.392 601.482 152.067 602.998 147.75C603.348 146.7 603.523 145.942 603.523 145.475C603.873 142.908 604.34 141.275 604.923 140.575C605.04 140.225 605.215 139.875 605.448 139.525C605.565 139.058 605.74 138.592 605.973 138.125C606.09 137.658 606.323 137.133 606.673 136.55C606.907 135.85 607.257 135.267 607.723 134.8C608.073 134.217 608.598 133.225 609.298 131.825C609.298 131.475 609.415 131.125 609.648 130.775C610.582 129.375 611.048 128.5 611.048 128.15C611.048 127.683 612.857 125.058 616.473 120.275C617.99 118.758 618.748 117.825 618.748 117.475C618.748 117.008 620.848 114.967 625.048 111.35L628.898 108.725C630.182 107.908 631.465 107.267 632.748 106.8C636.248 105.517 639.223 104.875 641.673 104.875C647.39 104.875 651.882 106.625 655.148 110.125C657.948 112.925 659.348 117.242 659.348 123.075C659.348 127.625 658.765 129.9 657.598 129.9C655.498 129.667 654.448 129.025 654.448 127.975C654.682 127.392 654.798 125.117 654.798 121.15C654.798 119.75 654.448 118.408 653.748 117.125C651.648 113.158 650.073 111.175 649.023 111.175C646.923 111.175 644.473 113.333 641.673 117.65C640.04 120.1 639.223 121.442 639.223 121.675C639.223 121.908 638.99 122.2 638.523 122.55C638.173 122.783 637.998 123.075 637.998 123.425C637.998 123.658 637.707 124.183 637.123 125C636.54 125.7 636.19 126.458 636.073 127.275L635.548 128.5C632.398 133.517 629.715 138.767 627.498 144.25C625.865 147.4 625.048 149.383 625.048 150.2C625.048 151.017 624.523 153 623.473 156.15C623.24 156.85 623.123 157.375 623.123 157.725C623.123 158.075 622.89 158.658 622.423 159.475C621.957 160.292 621.665 161.4 621.548 162.8C621.432 164.2 621.198 165.425 620.848 166.475C619.682 169.742 619.098 174.117 619.098 179.6C619.098 183.1 619.507 185.783 620.323 187.65C622.307 192.317 624.873 194.65 628.023 194.65C633.857 194.65 641.148 189.633 649.898 179.6L656.023 172.6C659.873 167.933 664.657 161.517 670.373 153.35C670.607 152.883 672.998 149.442 677.548 143.025C680.465 138.592 682.332 136.375 683.148 136.375C684.432 136.725 685.073 137.308 685.073 138.125C685.073 138.708 681.69 144.075 674.923 154.225C668.507 164.375 663.49 171.783 659.873 176.45C652.64 186.133 647.215 192.317 643.598 195C639.515 198.15 635.373 199.725 631.173 199.725ZM605.798 169.45C606.498 161.283 607.782 154.4 609.648 148.8C611.515 143.083 613.79 138.067 616.473 133.75C619.157 129.433 622.015 125.233 625.048 121.15C626.565 119.05 628.14 116.833 629.773 114.5C625.223 118.467 621.14 123.25 617.523 128.85C613.907 134.45 611.048 140.692 608.948 147.575C606.848 154.342 605.798 161.633 605.798 169.45ZM611.398 180.825V176.45C611.398 170.15 611.865 164.375 612.798 159.125C613.848 153.758 615.365 148.8 617.348 144.25C619.448 139.7 621.665 135.208 623.998 130.775C625.398 128.442 626.74 125.992 628.023 123.425C624.057 127.858 620.673 133.05 617.873 139C613.207 148.683 610.873 159.242 610.873 170.675C610.873 174.058 611.048 177.442 611.398 180.825ZM697.859 188.35C698.559 188.35 699.376 188.117 700.309 187.65C702.409 186.717 705.618 183.042 709.934 176.625L712.909 172.075C717.459 165.542 720.784 158.017 722.884 149.5L720.784 148.975C715.068 147.342 710.634 144.367 707.484 140.05C707.018 139.117 706.551 138.65 706.084 138.65C705.618 138.65 705.326 139.117 705.209 140.05C705.209 140.983 704.918 141.742 704.334 142.325C703.868 143.258 703.576 144.192 703.459 145.125C703.459 145.942 702.993 147.342 702.059 149.325C701.709 150.025 701.476 150.725 701.359 151.425L698.384 160.175C697.801 162.042 697.393 163.733 697.159 165.25L696.109 168.75C695.059 172.833 694.534 176.742 694.534 180.475C694.534 181.058 694.534 182.05 694.534 183.45C694.534 184.85 695.001 186.133 695.934 187.3C696.401 188 697.043 188.35 697.859 188.35ZM723.584 145.125C723.701 143.142 723.876 141.1 724.109 139C724.343 136.9 724.459 134.975 724.459 133.225L724.109 130.425C723.176 120.625 720.434 115.55 715.884 115.2C713.668 115.2 712.559 116.6 712.559 119.4C712.559 120.333 712.384 121.208 712.034 122.025C711.568 122.492 711.159 123.425 710.809 124.825C710.693 125.408 710.518 125.992 710.284 126.575C710.051 127.158 709.876 127.625 709.759 127.975C709.643 128.325 709.468 128.733 709.234 129.2C709.118 129.55 709.059 129.842 709.059 130.075C709.059 132.408 710.576 135.617 713.609 139.7C715.359 141.8 716.934 143.2 718.334 143.9C719.034 144.133 719.734 144.425 720.434 144.775C721.251 145.008 722.301 145.125 723.584 145.125ZM697.159 193.6C695.526 193.6 693.018 192.725 689.634 190.975C685.784 189.108 682.984 186.833 681.234 184.15C679.834 182.167 678.668 179.192 677.734 175.225C676.218 169.392 675.459 164.958 675.459 161.925C675.459 160.058 676.393 153.992 678.259 143.725C678.726 140.925 679.193 139.292 679.659 138.825C680.126 138.358 680.476 137.367 680.709 135.85C680.943 134.217 681.293 133.167 681.759 132.7C682.226 132.117 682.459 131.65 682.459 131.3C682.459 130.833 682.634 130.367 682.984 129.9C684.384 127.567 685.143 126.05 685.259 125.35C685.493 124.533 685.843 123.892 686.309 123.425C686.893 122.842 687.301 122.083 687.534 121.15C687.884 120.683 688.234 120.158 688.584 119.575C689.051 118.875 689.518 118.292 689.984 117.825C691.034 117.008 691.559 116.367 691.559 115.9C691.559 115.317 691.909 114.675 692.609 113.975C695.759 110.825 697.976 109.017 699.259 108.55C700.543 107.967 702.234 107.675 704.334 107.675C707.134 107.675 709.526 108.55 711.509 110.3C712.209 111 713.376 111.467 715.009 111.7C716.643 111.933 718.393 112.633 720.259 113.8C725.626 117.3 728.309 124.533 728.309 135.5L728.134 141.625L727.959 144.075C727.959 144.425 727.959 144.892 727.959 145.475C728.076 146.058 728.834 146.35 730.234 146.35C730.818 146.35 731.576 146.233 732.509 146C740.793 145.067 748.259 142.092 754.909 137.075C755.726 136.492 756.484 136.2 757.184 136.2C758.001 136.2 758.409 136.433 758.409 136.9C758.409 137.367 758.176 137.95 757.709 138.65C754.326 141.8 749.951 144.425 744.584 146.525C739.918 148.392 735.076 149.383 730.059 149.5L726.909 149.85L724.984 156.325C722.184 167.058 717.576 176.508 711.159 184.675L709.234 186.95C707.368 189.167 705.151 190.858 702.584 192.025C700.368 193.075 698.559 193.6 697.159 193.6ZM682.809 169.8C683.276 155.45 686.076 143.142 691.209 132.875C692.493 130.542 696.459 123.775 703.109 112.575C698.909 116.892 695.176 122.025 691.909 127.975C685.726 139.408 682.634 151.658 682.634 164.725L682.809 169.8ZM688.584 181C688.118 176.683 687.884 172.658 687.884 168.925C687.884 159.825 689.284 151.425 692.084 143.725C693.018 141.275 696.109 133.983 701.359 121.85C697.743 126.75 694.709 132.35 692.259 138.65C688.759 147.283 687.009 156.325 687.009 165.775C687.009 170.792 687.534 175.867 688.584 181ZM847.442 194.65H846.042C842.659 194.65 839.159 192.9 835.542 189.4C832.509 186.717 830.992 184.558 830.992 182.925C830.059 181.292 829.359 179.017 828.892 176.1C828.542 173.183 828.25 171.492 828.017 171.025C828.017 162.275 828.134 157.842 828.367 157.725C828.717 157.608 828.892 156.908 828.892 155.625C828.892 154.925 829.009 154.283 829.242 153.7C829.592 153 829.884 151.892 830.117 150.375C831.05 146.058 831.984 142.617 832.917 140.05C834.317 134.217 835.309 130.717 835.892 129.55C836.475 128.267 836.825 126.633 836.942 124.65C836.942 124.417 836.767 124.3 836.417 124.3C830.35 125.933 824.05 132.058 817.517 142.675C814.6 146.758 813.142 150.375 813.142 153.525L812.442 156.325C811.859 159.125 811.159 161.167 810.342 162.45C810.109 163.5 809.817 164.2 809.467 164.55C809.35 165.717 808.65 167.408 807.367 169.625C804.567 174.292 802 176.625 799.667 176.625C794.184 176.042 791.325 173.825 791.092 169.975L790.917 165.95C790.917 164.317 791.034 163.208 791.267 162.625C791.617 161.575 791.85 159.767 791.967 157.2C792.084 156.617 792.259 156.267 792.492 156.15C793.192 154.167 793.6 152.417 793.717 150.9C793.717 150.433 793.834 149.908 794.067 149.325C794.417 148.742 794.592 148.333 794.592 148.1V147.925C794.592 147.692 795.059 146 795.992 142.85C797.275 140.167 798.034 138.067 798.267 136.55C798.5 134.917 798.792 133.808 799.142 133.225C799.609 132.642 799.959 131.825 800.192 130.775C800.425 129.725 800.775 128.733 801.242 127.8C801.709 126.867 802.059 125.467 802.292 123.6C802.642 121.617 803.575 118.758 805.092 115.025C805.675 113.392 806.142 110.883 806.492 107.5C803.925 109.25 801.884 110.825 800.367 112.225C792.317 119.575 784.85 129.667 777.967 142.5C774 150.083 772.017 153.992 772.017 154.225C772.017 154.342 771.784 154.808 771.317 155.625C770.85 156.442 770.325 157.608 769.742 159.125C769.625 159.242 769.567 159.358 769.567 159.475C769.567 159.592 769.159 160.817 768.342 163.15C767.642 164.667 767 166.533 766.417 168.75C766.067 169.8 765.775 170.442 765.542 170.675C764.959 171.492 764.434 172.658 763.967 174.175C763.5 175.575 763.034 176.508 762.567 176.975C762.217 177.442 761.342 179.192 759.942 182.225C759.242 183.625 758.075 184.325 756.442 184.325C754.809 184.325 753.234 183.917 751.717 183.1C750.084 182.4 748.975 181.525 748.392 180.475C747.692 178.608 747.342 176.158 747.342 173.125C747.342 171.958 747.4 170.792 747.517 169.625C747.634 168.342 747.692 167.292 747.692 166.475C748.275 159.125 749.15 153.933 750.317 150.9C750.784 150.083 751.017 149.208 751.017 148.275C751.017 146.642 751.484 145.183 752.417 143.9C752.534 143.783 752.767 143.2 753.117 142.15C753.117 141.1 753.292 140.283 753.642 139.7C753.875 139.117 754.809 136.667 756.442 132.35C756.909 131.767 757.142 131.183 757.142 130.6C757.142 130.017 757.725 128.5 758.892 126.05C759.125 125.583 759.242 125.175 759.242 124.825C759.242 124.475 759.65 123.775 760.467 122.725L761.692 119.925C761.692 118.642 762.8 117.3 765.017 115.9C766.067 115.2 767.409 114.85 769.042 114.85C774.992 114.85 777.967 117.65 777.967 123.25C777.267 130.017 776.8 133.458 776.567 133.575C776.334 133.575 776.217 133.925 776.217 134.625C776.45 134.625 777.209 133.575 778.492 131.475C785.609 120.742 791.092 113.392 794.942 109.425C800.075 104.292 804.217 101.725 807.367 101.725C810.634 102.308 812.734 102.95 813.667 103.65C817.284 106.45 819.092 110.708 819.092 116.425C819.092 117.008 819.034 118.058 818.917 119.575C818.8 120.975 818.684 122.9 818.567 125.35C818.45 127.683 818.275 129.55 818.042 130.95C818.042 131.417 818.1 131.65 818.217 131.65C818.45 131.65 819.092 131.067 820.142 129.9C826.442 122.667 832.1 119.05 837.117 119.05C840.5 119.05 843.767 120.333 846.917 122.9C850.067 125.467 851.642 129.258 851.642 134.275C851.409 141.392 851.059 146.467 850.592 149.5C850.242 149.85 849.892 151.075 849.542 153.175C849.309 155.275 849.134 156.383 849.017 156.5C847.5 162.217 846.567 166.65 846.217 169.8C845.867 171.9 845.634 173.008 845.517 173.125C845.4 173.242 845.109 175.05 844.642 178.55C844.525 179.367 844.35 180.125 844.117 180.825C844 181.525 843.942 182.225 843.942 182.925C843.942 185.375 844.292 187.358 844.992 188.875C845.342 189.575 845.75 189.925 846.217 189.925C851.467 189.925 857.359 184.5 863.892 173.65C866.925 168.75 871.417 159.825 877.367 146.875L882.267 136.2C882.734 135.267 883.609 134.8 884.892 134.8C886.059 134.8 886.642 135.325 886.642 136.375C885.009 142.792 880.167 153.292 872.117 167.875C862.2 185.725 853.975 194.65 847.442 194.65ZM752.417 176.8C755.217 159.067 760.292 140.342 767.642 120.625C763.442 129.025 759.942 138.3 757.142 148.45C754.342 158.6 752.767 168.05 752.417 176.8ZM756.442 171.55C759.709 150.2 764.025 134.625 769.392 124.825C767.292 129.375 764.959 136.258 762.392 145.475C759.825 154.575 757.842 163.267 756.442 171.55ZM799.667 170.325C809.117 150.492 813.842 133.75 813.842 120.1C813.842 116.717 813.492 113.45 812.792 110.3C812.909 112.05 812.967 113.858 812.967 115.725C812.967 130.658 808.534 148.858 799.667 170.325ZM798.967 167C800.6 160.7 802.234 154.808 803.867 149.325C808.3 135.208 810.517 124.767 810.517 118V116.95C809.817 124.65 806.609 138.3 800.892 157.9C800.075 160.933 799.434 163.967 798.967 167ZM836.242 179.95L842.017 157.2C844.584 146.7 845.867 138.883 845.867 133.75C845.867 132.817 845.809 131.3 845.692 129.2C845.692 127.1 844.875 125.583 843.242 124.65C844.409 126.167 844.992 128.792 844.992 132.525C844.992 133.108 844.934 134.742 844.817 137.425C844.7 140.108 843.825 145.242 842.192 152.825C840.675 160.408 838.692 169.45 836.242 179.95ZM834.142 173.65C839.275 155.45 841.842 143.317 841.842 137.25C841.842 135.15 841.55 133.633 840.967 132.7L841.142 134.975C841.142 141.275 838.809 154.167 834.142 173.65Z" fill="#F6A454"/>
</svg>
